# Made in Blockbench 5.1.3
mtllib materials.mtl

o mesh
v 0.5 2.125 1.3125
v 0.3125 1.4375 -4.5
v 0.5 1.125 1.3125
v 0.3125 1.25 -4.5
v -0.5 2.125 1.3125
v -0.3125 1.4375 -4.5
v -0.5 1.125 1.3125
v -0.3125 1.25 -4.5
v -0.5 2.075 -1.7374999999999998
v -0.5 1.1375 -2.175
v 0.5 1.1375 -2.175
v 0.5 2.075 -1.7374999999999998
v -0.4375 1.5625 -3
v 0.4375 1.5625 -3
v -0.40625 1.5625 -3
v -0.43996139180031213 2.0077761920824306 -1.8791291402717454
v 0.40625 1.5625 -3
v 0.43503860819968787 2.0077761920824306 -1.8791291402717454
v -0.37127409850152815 1.5255845270074615 -2.645131271704194
v -0.3786920877004682 1.9741642881236459 -1.8249437104076183
v 0.3589671394999674 1.5382964334046914 -2.6630144296545333
v 0.3713079122995318 1.9741642881236459 -1.8249437104076183
v -0.37406390965762587 0.9618891223618394 -2.6569724516348128
v -0.3814818988565659 1.160468883478024 -1.836784890338237
v 0.35617732834386967 0.9746010287590693 -2.674855609585152
v 0.3685181011434341 1.160468883478024 -1.836784890338237
v 0.3685181011434341 1.1613783090331518 -0.8992782735492595
v -0.3814818988565659 1.1613783090331518 -0.8992782735492595
v -0.3786920877004682 1.9750737136787737 -0.8874370936186404
v 0.3713079122995318 1.9750737136787737 -0.8874370936186404
vt 0.578125 0.3359375
vt 0.578125 0.4609375
vt 0.453125 0.4609375
vt 0.453125 0.3359375
vt 0.234375 0.8671875
vt 0.15625 0.8671875
vt 0.15625 0.84375
vt 0.234375 0.84375
vt 0.0234375 0.7347171875
vt 0 0.44375234374999994
vt 0.125 0.44375234374999994
vt 0.1015625 0.7347171875
vt 0.7309328037901612 0.8671875
vt 0.34968280379016126 0.8609375
vt 0.29499530379016126 0.74375
vt 0.7309328037901612 0.7421875
vt 0.125 0.0078125
vt 0.125 0.44375234374999994
vt 0 0.44375234374999994
vt 0 0.0078125
vt 0.0034413166064683476 0.875
vt 0.4393788166064683 0.8765625
vt 0.3846913166064683 0.99375
vt 0.0034413166064683476 1
vt 0.1328125 0.734375
vt 0.1328125 0.3530734375
vt 0.2578125 0.3530734375
vt 0.2578125 0.734375
vt 0.003442196209838766 0.7581202650521954
vt 0.29499518341691894 0.7437497420573379
vt 0.19163247556340376 0.7969860372954745
vt 0.003466892617187356 0.7815561895398568
vt 0.29499518341691894 0.7437497420573379
vt 0.34968280379016126 0.8609375
vt 0.19163195311148978 0.7969863063809591
vt 0.7309336833935316 0.8909376520408123
vt 0.7309086370443147 0.9143751386579902
vt 0.5427420469118975 0.9297990643236211
vt 0.4393809089384921 0.876563577642098
vt 0.5427420469118975 0.9297990643236211
vt 0.38469119623322606 0.993750257942662
vt 0.4393788166064683 0.8765625
vt 0.5001876075889782 0.475264822246803
vt 0.5780445967475809 0.4687991541330472
vt 0.6091873924110218 0.6550105646407418
vt 0.5001876075889782 0.6640625
vt 0.35305728578681855 0.252090477217946
vt 0.444361243410042 0.25388818336341124
vt 0.4452890424591804 0.35937421875
vt 0.3515625 0.35937421875
vt 0.2503078125 0.3334765625
vt 0.24620033161213956 0.182714246008443
vt 0.2501065806359876 0.1827170075634631
vt 0.25779867322787536 0.3530373318626927
vt 0.1409328125 0.3334765625
vt 0.2503078125 0.3334765625
vt 0.2578125 0.3530734375
vt 0.1328125 0.3530734375
vt 0.14372367418615897 0.18270042822681298
vt 0.1409328125 0.3334765625
vt 0.13281253306542234 0.35307335770270787
vt 0.13987054587192999 0.1827216252366911
vt 0.5188512815782507 0.953125
vt 0.610172749193416 0.953125
vt 0.617164435280159 0.9973971489755423
vt 0.515648064719841 1
vt 0.3835010571677425 0.7280944798090268
vt 0.48603093811338827 0.6720249546106454
vt 0.5305621911531172 0.6770321435613631
vt 0.3908341996359531 0.7334459250799059
vt 0.68734609375 0.3360953125
vt 0.59359609375 0.3360953125
vt 0.5859375 0.328125
vt 0.6953125 0.328125
vt 0.04377748470987851 0.8049818832301384
vt 0.1484375 0.8596764819558754
vt 0.14003708876207682 0.8671875
vt 0.6098198529934159 0.6640625
vt 0.7011407244239815 0.6640625
vt 0.7026801470065841 0.734375
vt 0.6113585080455336 0.734375
vt 0.38498077759688276 0.6263820068442676
vt 0.4875096650351489 0.6015625
vt 0.48603093811338827 0.6720249546106454
vt 0.38350109075741 0.7280944614401699
vt 0.61345546875 0.5
vt 0.70720546875 0.5
vt 0.70685703125 0.6015625
vt 0.61310703125 0.6015625
vt 0.26718725356377593 0.4686849480568882
vt 0.3719564954417671 0.49192336917792556
vt 0.37343696518622405 0.5936359375
vt 0.26866916318286926 0.5391475164121344
vt 0.04377748470987851 0.8049818832301384
vt 0.1400368597098785 0.8671873519801384
vt 0.0012548284598785098 0.8081889144801384
vt 0.4453125 0.4765625
vt 0.3515625 0.4765625
vt 0.3515625 0.35937421875
vt 0.4453125 0.35937421875
vt 0.2663128088468828 0.7282077880942674
vt 0.26779249634688274 0.6264952880942676
vt 0.38498077759688276 0.6263820068442676
vt 0.38350109009688277 0.7280945068442675
vt 0.68734609375 0.45328359374999994
vt 0.59359609375 0.45328359374999994
vt 0.59359609375 0.3360953125
vt 0.68734609375 0.3360953125
vt 0.489144777686224 0.4920375
vt 0.49062524643622407 0.59375
vt 0.37343696518622405 0.5936359375
vt 0.371956496436224 0.4919234375
vn 0 0 1
vn 0 0 -1
vn 0 -0.9988313960820002 -0.0483305514233226
vn -1 0 0
vn 0 -0.999993576711726 -0.0035842063681423863
vn 1 0 0
vn 0 0.9998656545973652 -0.016391240239301084
vn -0.9966690837125624 -0.010436325483901202 -0.08088152250023413
vn -0.9977364643936077 0.028437114213172854 -0.06093667331394183
vn 0.9965457582448797 0 -0.08304547985373997
vn 0.9977364643936077 0.028437114213172857 -0.060936673313941835
vn 0 0.9965457582448797 -0.08304547985373997
vn -0.022679829040196525 0.9716219391821718 -0.23544942695743323
vn 0 0.9293524481222359 -0.36919375288486006
vn 0 0.9034011545858815 -0.42879640144583336
vn -0.16410750926816597 0.91819168618919 -0.3605450773687678
vn -0.015663015774661452 0.9974628940137535 0.06944382623783421
vn 0.9834474924113343 0.1625676238581607 -0.08001748148355085
vn 0 -0.8497837092682177 -0.5271315276687116
vn -0.6496118561567298 0.6783711419647795 -0.3432448544261214
vn 0.024843982382701565 -0.021118131197800073 0.9994682591628814
vn 0.9999336736030308 -0.005165061761776894 0.010294198936521918
vn 0 0.014550808882045949 -0.9998941313763564
vn -0.9998966760544803 0.0032243571635263923 0.014008595078879884
vn -0.9372329212108085 0.3316606410203988 -0.1076831955162584
vn 0 0.9999995295046645 -0.000970046622563823
vn 0.9999941223363196 -0.003428597636402594 0.000003325901122143329
vn 0 -0.9999995295046645 0.0009700466225638081
vn -0.9999941223363196 0.0034285976364025945 -0.0000033259011221433284
usemtl m_b4a37fed-f014-a311-c158-db9a66706c5a
f 3/1/1 1/2/1 5/3/1 7/4/1
f 6/5/2 2/6/2 4/7/2 8/8/2
f 4/9/3 11/10/3 10/11/3 8/12/3
f 5/13/4 9/14/4 10/15/4 7/16/4
f 7/17/5 10/18/5 11/19/5 3/20/5
f 3/21/6 11/22/6 12/23/6 1/24/6
f 1/25/7 12/26/7 9/27/7 5/28/7
f 8/29/8 10/30/8 13/31/8 6/32/8
f 10/33/9 9/34/9 13/35/9
f 4/36/10 2/37/10 14/38/10 11/39/10
f 14/40/11 12/41/11 11/42/11
f 2/43/12 6/44/12 13/45/12 14/46/12
f 25/47/13 23/48/13 24/49/13 26/50/13
f 16/51/14 15/52/14 13/53/14 9/54/14
f 18/55/15 16/56/15 9/57/15 12/58/15
f 17/59/16 18/60/16 12/61/16 14/62/16
f 19/63/17 21/64/17 17/65/17 15/66/17
f 20/67/18 19/68/18 15/69/18 16/70/18
f 22/71/19 20/72/19 16/73/19 18/74/19
f 21/75/20 22/76/20 18/77/20
f 23/78/21 25/79/21 21/80/21 19/81/21
f 24/82/22 23/83/22 19/84/22 20/85/22
f 27/86/23 28/87/23 29/88/23 30/89/23
f 25/90/24 26/91/24 22/92/24 21/93/24
f 21/94/25 18/95/25 17/96/25
f 28/97/26 27/98/26 26/99/26 24/100/26
f 29/101/27 28/102/27 24/103/27 20/104/27
f 30/105/28 29/106/28 20/107/28 22/108/28
f 27/109/29 30/110/29 22/111/29 26/112/29
o cylinder
v 0 1.625 1.25
v 0 1.625 1.8125
v 0.13397459621556132 1.125 1.25
v 0.13397459621556132 1.1250000000000002 1.8125
v 0.3660254037844386 1.2589745962155614 1.25
v 0.3660254037844386 1.2589745962155614 1.8125
v 0.49999999999999994 1.4910254037844386 1.25
v 0.49999999999999994 1.4910254037844388 1.8125
v 0.49999999999999994 1.7589745962155614 1.25
v 0.49999999999999994 1.7589745962155614 1.8125
v 0.36602540378443865 1.9910254037844386 1.25
v 0.36602540378443865 1.9910254037844388 1.8125
v 0.1339745962155615 2.125 1.25
v 0.1339745962155615 2.125 1.8125
v -0.13397459621556113 2.125 1.25
v -0.13397459621556113 2.125 1.8125
v -0.3660254037844386 1.9910254037844388 1.25
v -0.3660254037844386 1.9910254037844388 1.8125
v -0.49999999999999994 1.7589745962155612 1.25
v -0.49999999999999994 1.7589745962155614 1.8125
v -0.5 1.4910254037844388 1.25
v -0.5 1.491025403784439 1.8125
v -0.3660254037844387 1.2589745962155614 1.25
v -0.3660254037844387 1.2589745962155616 1.8125
v -0.1339745962155613 1.125 1.25
v -0.1339745962155613 1.1250000000000002 1.8125
vt 0.046875 0.984375
vt 0.015625 0.984375
vt 0.015625 0.953125
vt 0.109375 0.984375
vt 0.078125 0.984375
vt 0.078125 0.953125
vt 0.109375 0.953125
vt 0.171875 0.984375
vt 0.140625 0.984375
vt 0.140625 0.953125
vt 0.234375 0.984375
vt 0.203125 0.984375
vt 0.203125 0.953125
vt 0.296875 0.984375
vt 0.265625 0.984375
vt 0.265625 0.953125
vt 0.296875 0.953125
vt 0.359375 0.984375
vt 0.328125 0.984375
vt 0.328125 0.953125
vt 0.421875 0.984375
vt 0.390625 0.984375
vt 0.390625 0.953125
vt 0.484375 0.984375
vt 0.453125 0.984375
vt 0.453125 0.953125
vt 0.484375 0.953125
vt 0.546875 0.984375
vt 0.515625 0.984375
vt 0.515625 0.953125
vt 0.609375 0.984375
vt 0.578125 0.984375
vt 0.578125 0.953125
vt 0.671875 0.984375
vt 0.640625 0.984375
vt 0.640625 0.953125
vt 0.671875 0.953125
vt 0.734375 0.984375
vt 0.703125 0.984375
vt 0.703125 0.953125
vt 0.796875 0.984375
vt 0.765625 0.984375
vt 0.765625 0.953125
vt 0.859375 0.984375
vt 0.828125 0.984375
vt 0.828125 0.953125
vt 0.859375 0.953125
vt 0.921875 0.984375
vt 0.890625 0.984375
vt 0.890625 0.953125
vt 0.984375 0.984375
vt 0.953125 0.984375
vt 0.953125 0.953125
vt 0.046875 0.921875
vt 0.015625 0.921875
vt 0.015625 0.890625
vt 0.046875 0.890625
vt 0.109375 0.921875
vt 0.078125 0.921875
vt 0.078125 0.890625
vt 0.171875 0.921875
vt 0.140625 0.921875
vt 0.140625 0.890625
vt 0.234375 0.921875
vt 0.203125 0.921875
vt 0.203125 0.890625
vt 0.234375 0.890625
vt 0.296875 0.921875
vt 0.265625 0.921875
vt 0.265625 0.890625
vt 0.359375 0.921875
vt 0.328125 0.921875
vt 0.328125 0.890625
vt 0.421875 0.921875
vt 0.390625 0.921875
vt 0.390625 0.890625
vt 0.421875 0.890625
vt 0.484375 0.921875
vt 0.453125 0.921875
vt 0.453125 0.890625
vt 0.546875 0.921875
vt 0.515625 0.921875
vt 0.515625 0.890625
vt 0.609375 0.921875
vt 0.578125 0.921875
vt 0.578125 0.890625
vt 0.609375 0.890625
vt 0.671875 0.921875
vt 0.640625 0.921875
vt 0.640625 0.890625
vt 0.734375 0.921875
vt 0.703125 0.921875
vt 0.703125 0.890625
vt 0.796875 0.921875
vt 0.765625 0.921875
vt 0.765625 0.890625
vt 0.796875 0.890625
vt 0.859375 0.921875
vt 0.828125 0.921875
vt 0.828125 0.890625
vt 0.921875 0.921875
vt 0.890625 0.921875
vt 0.890625 0.890625
vt 0.984375 0.921875
vt 0.953125 0.921875
vt 0.953125 0.890625
vt 0.984375 0.890625
vt 0.046875 0.859375
vt 0.015625 0.859375
vt 0.015625 0.828125
vt 0.109375 0.859375
vt 0.078125 0.859375
vt 0.078125 0.828125
vt 0.171875 0.859375
vt 0.140625 0.859375
vt 0.140625 0.828125
vt 0.171875 0.828125
vt 0.234375 0.859375
vt 0.203125 0.859375
vt 0.203125 0.828125
vn 0 -2.220446049250313e-16 -1
vn 0.49999999999999983 -0.8660254037844388 1.9229626863835643e-16
vn 0 2.220446049250313e-16 1
vn 0 -2.220446049250313e-16 -1
vn 0.8660254037844387 -0.4999999999999999 8.800336504232743e-17
vn 0 2.220446049250313e-16 1
vn 0 -2.220446049250313e-16 -1
vn 1 0 0
vn 0 2.220446049250313e-16 1
vn 0 -2.220446049250313e-16 -1
vn 0.8660254037844388 0.49999999999999994 -1.1102230246251564e-16
vn 0 2.220446049250313e-16 1
vn 0 -2.220446049250313e-16 -1
vn 0.5000000000000001 0.8660254037844388 -1.9229626863835643e-16
vn 0 2.220446049250313e-16 1
vn 0 -2.220446049250313e-16 -1
vn 4.1434087356338794e-16 1 -2.220446049250313e-16
vn 0 2.220446049250313e-16 1
vn 0 -2.220446049250313e-16 -1
vn -0.49999999999999956 0.8660254037844392 -1.922962686383565e-16
vn 0 2.220446049250313e-16 1
vn 0 -2.220446049250313e-16 -1
vn -0.8660254037844388 0.49999999999999983 -8.800336504232743e-17
vn 0 2.220446049250313e-16 1
vn 0 -2.220446049250313e-16 -1
vn -1 2.0717043678169412e-16 -4.6001077787337445e-32
vn 0 2.220446049250313e-16 1
vn 0 -2.220446049250313e-16 -1
vn -0.866025403784439 -0.49999999999999967 1.1102230246251558e-16
vn 0 2.220446049250313e-16 1
vn 0 -2.220446049250313e-16 -1
vn -0.4999999999999999 -0.8660254037844387 1.922962686383564e-16
vn 0 2.220446049250313e-16 1
vn 0 -2.220446049250313e-16 -1
vn 0 -1 2.220446049250313e-16
vn 0 2.220446049250313e-16 1
usemtl m_f4c94ada-bccf-a6b5-2bf0-4c7663a1085b
f 35/113/30 33/114/30 31/115/30
f 33/116/31 35/117/31 36/118/31 34/119/31
f 34/120/32 36/121/32 32/122/32
f 37/123/33 35/124/33 31/125/33
f 35/126/34 37/127/34 38/128/34 36/129/34
f 36/130/35 38/131/35 32/132/35
f 39/133/36 37/134/36 31/135/36
f 37/136/37 39/137/37 40/138/37 38/139/37
f 38/140/38 40/141/38 32/142/38
f 41/143/39 39/144/39 31/145/39
f 39/146/40 41/147/40 42/148/40 40/149/40
f 40/150/41 42/151/41 32/152/41
f 43/153/42 41/154/42 31/155/42
f 41/156/43 43/157/43 44/158/43 42/159/43
f 42/160/44 44/161/44 32/162/44
f 45/163/45 43/164/45 31/165/45
f 43/166/46 45/167/46 46/168/46 44/169/46
f 44/170/47 46/171/47 32/172/47
f 47/173/48 45/174/48 31/175/48
f 45/176/49 47/177/49 48/178/49 46/179/49
f 46/180/50 48/181/50 32/182/50
f 49/183/51 47/184/51 31/185/51
f 47/186/52 49/187/52 50/188/52 48/189/52
f 48/190/53 50/191/53 32/192/53
f 51/193/54 49/194/54 31/195/54
f 49/196/55 51/197/55 52/198/55 50/199/55
f 50/200/56 52/201/56 32/202/56
f 53/203/57 51/204/57 31/205/57
f 51/206/58 53/207/58 54/208/58 52/209/58
f 52/210/59 54/211/59 32/212/59
f 55/213/60 53/214/60 31/215/60
f 53/216/61 55/217/61 56/218/61 54/219/61
f 54/220/62 56/221/62 32/222/62
f 33/223/63 55/224/63 31/225/63
f 55/226/64 33/227/64 34/228/64 56/229/64
f 56/230/65 34/231/65 32/232/65
o mesh
v 1.5625 1 0.6875
v 1.5625 1 -0.875
v 1.5625 0.3125 0.6875
v 1.5625 0.3125 -0.875
v 0.875 1 0.6875
v 0.875 1 -0.875
v 0.875 0.3125 0.6875
v 0.875 0.3125 -0.875
vt 0.125 1
vt 0 1
vt 0 0.9375
vt 0.125 0.9375
vt 0.125 0.9375
vt 0.125 1
vt 0 1
vt 0 0.9375
vt 0 0.875
vt 0.125 0.875
vt 0.125 1
vt 0 1
vt 0.125 0.875
vt 0.125 1
vt 0 1
vt 0 0.875
vt 0.125 0.9375
vt 0.125 1
vt 0 1
vt 0 0.9375
vt 0.125 1
vt 0 1
vt 0 0.9375
vt 0.125 0.9375
vn 1 0 0
vn -1 0 0
vn 0 1 0
vn 0 -1 0
vn 0 0 1
vn 0 0 -1
usemtl none
f 58/233/66 57/234/66 59/235/66 60/236/66
f 63/237/67 61/238/67 62/239/67 64/240/67
f 61/241/68 57/242/68 58/243/68 62/244/68
f 60/245/69 59/246/69 63/247/69 64/248/69
f 59/249/70 57/250/70 61/251/70 63/252/70
f 62/253/71 58/254/71 60/255/71 64/256/71
o mesh
v -1 2.875 0.6875
v -1 2.875 -0.875
v -1 2.1875 0.6875
v -1 2.1875 -0.875
v -1.6875 2.875 0.6875
v -1.6875 2.875 -0.875
v -1.6875 2.1875 0.6875
v -1.6875 2.1875 -0.875
vt 0.125 1
vt 0 1
vt 0 0.9375
vt 0.125 0.9375
vt 0.125 0.9375
vt 0.125 1
vt 0 1
vt 0 0.9375
vt 0 0.875
vt 0.125 0.875
vt 0.125 1
vt 0 1
vt 0.125 0.875
vt 0.125 1
vt 0 1
vt 0 0.875
vt 0.125 0.9375
vt 0.125 1
vt 0 1
vt 0 0.9375
vt 0.125 1
vt 0 1
vt 0 0.9375
vt 0.125 0.9375
vn 1 0 0
vn -1 0 0
vn 0 1 0
vn 0 -1 0
vn 0 0 1
vn 0 0 -1
usemtl none
f 66/257/72 65/258/72 67/259/72 68/260/72
f 71/261/73 69/262/73 70/263/73 72/264/73
f 69/265/74 65/266/74 66/267/74 70/268/74
f 68/269/75 67/270/75 71/271/75 72/272/75
f 67/273/76 65/274/76 69/275/76 71/276/76
f 70/277/77 66/278/77 68/279/77 72/280/77
o mesh
v 0.8405459187330311 1.440345527079855 0.5
v 0.8405459187330311 1.440345527079855 -0.5
v 1.1091957229064429 0.581149804173412 0.5
v 1.1091957229064429 0.581149804173412 -0.5
v -1.1446071948168552 2.695252741085412 0.5
v -1.1446071948168552 2.695252741085412 -0.5
v -0.8759573906434437 1.8360570181789702 0.5
v -0.8759573906434437 1.8360570181789702 -0.5
vt 0.390625 0.9218750000000004
vt 0.265625 0.9218750000000004
vt 0.265625 0.8093476562500004
vt 0.390625 0.8093476562500004
vt 0.125 0.5905984374999997
vt 0.125 0.7031249999999997
vt 0 0.7031249999999997
vt 0 0.5905984374999997
vt 0.1328125 1
vt 0.1328125 0.7064328125
vt 0.2578125 0.7064328125
vt 0.2578125 1
vt 0 0.7064328124999999
vt 0.125 0.7064328124999999
vt 0.125 0.9999999999999998
vt 0 0.9999999999999998
vt 0.24218749999999972 0.37847303896434714
vt 0.3150255302724052 0.4642454026866256
vt 0.3150255302724052 0.7578124999999996
vt 0.24218749999999967 0.6720401362777211
vt 0.6440569952991129 1
vt 0.35048989798573893 1
vt 0.2647175342634604 0.9271619697275945
vt 0.5582846315768344 0.9271619697275943
vn 0.9544321668415761 0.29842794590670285 0
vn -0.9544321668415761 -0.2984279459067031 0
vn 0.5343357725925524 0.8452723124105748 0
vn -0.5343357725925527 -0.8452723124105745 0
vn 0 0 1
vn 0 0 -1
usemtl m_b09412c5-5499-26ce-b7aa-7b1f8aafb361
f 74/281/78 73/282/78 75/283/78 76/284/78
f 79/285/79 77/286/79 78/287/79 80/288/79
f 77/289/80 73/290/80 74/291/80 78/292/80
f 76/293/81 75/294/81 79/295/81 80/296/81
f 75/297/82 73/298/82 77/299/82 79/300/82
f 78/301/83 74/302/83 76/303/83 80/304/83
o mesh
v 1.0648339055699072 2.5158951984068816 0.625
v 1.064833905569906 2.51589519840688 -0.625
v 1.208228014657669 2.3111071873346334 0.625
v 1.2082280146576674 2.3111071873346325 -0.625
v -1.495016232833192 0.7234688348098623 0.625
v -1.4950162328331889 0.7234688348098643 -0.625
v -1.3516221237454302 0.5186808237376145 0.625
v -1.351622123745428 0.5186808237376168 -0.625
vt 0.5546875 1
vt 0.3984375 1
vt 0.3984375 0.96875
vt 0.5546875 0.96875
vt 0.5546875 0.9296875
vt 0.5546875 0.9609375
vt 0.3984375 0.9609375
vt 0.3984375 0.9296875
vt 0.390625 0.8359375
vt 0 0.8359375
vt 0 0.6796875
vt 0.390625 0.6796875
vt 0 1
vt 0 0.84375
vt 0.390625 0.84375
vt 0.390625 1
vt 0.390625 0.640625
vt 0.390625 0.671875
vt 0 0.671875
vt 0 0.640625
vt 0.390625 0.6328125
vt 0 0.6328125
vt 0 0.6015625
vt 0.390625 0.6015625
vn 0.8191520442889918 0.573576436351046 -1.598721155460225e-15
vn -0.8191520442889918 -0.573576436351046 -2.8421709430404e-15
vn -0.573576436351046 0.8191520442889918 -5.32907051820075e-16
vn 0.573576436351046 -0.8191520442889918 -6.661338147750938e-17
vn 0 0 1
vn 0 0 -1
usemtl m_dd644eaa-f698-d3ea-2763-d324bfcff2cc
f 82/305/84 81/306/84 83/307/84 84/308/84
f 87/309/85 85/310/85 86/311/85 88/312/85
f 85/313/86 81/314/86 82/315/86 86/316/86
f 84/317/87 83/318/87 87/319/87 88/320/87
f 83/321/88 81/322/88 85/323/88 87/324/88
f 86/325/89 82/326/89 84/327/89 88/328/89
o mesh
v 3.163911019060449 3.985684816556437 0.46875
v 2.344758974771452 3.412108380205387 -0.46875
v 3.30730512814821 3.780896805484189 0.46875
v 2.4881530838592147 3.2073203691331393 -0.46875
v -3.5940933463237332 -0.746320783339693 0.46875
v -2.7749413020347378 -0.17274434698864383 -0.46875
v -3.450699237235972 -0.9511087944119412 0.46875
v -2.631547192946975 -0.37753235806089114 -0.46875
vt 0.17578125 0.8359375
vt 0.08984375 0.8359375
vt 0.08984375 0.8203125
vt 0.17578125 0.8203125
vt 0.0859375 0.8203125
vt 0.0859375 0.8359375
vt 0 0.8359375
vt 0 0.8203125
vt 0.515625 1
vt 0 1
vt 0.0625 0.94140625
vt 0.453125 0.94140625
vt 0.453125 0.87890625
vt 0.515625 0.9375
vt 0 0.9375
vt 0.0625 0.87890625
vt 0.515625 0.859375
vt 0.515625 0.875
vt 0 0.875
vt 0 0.859375
vt 0.390625 0.85546875
vt 0 0.85546875
vt 0 0.83984375
vt 0.390625 0.83984375
vn 0.5602517738964604 0.39229251537766335 -0.7295372041400872
vn -0.5602517738964606 -0.3922925153776636 -0.7295372041400869
vn -0.573576436351046 0.8191520442889918 -1.1842378929335e-16
vn 0.573576436351046 -0.8191520442889918 3.5527136788005e-16
vn 0 0 1
vn 0 0 -1
usemtl m_b1b1046c-ae94-d724-d6d1-77c2fd8ce76a
f 90/329/90 89/330/90 91/331/90 92/332/90
f 95/333/91 93/334/91 94/335/91 96/336/91
f 93/337/92 89/338/92 90/339/92 94/340/92
f 92/341/93 91/342/93 95/343/93 96/344/93
f 91/345/94 89/346/94 93/347/94 95/348/94
f 94/349/95 90/350/95 92/351/95 96/352/95
o cylinder
v 1.34375 2.53125 0.703125
v 1.34375 2.53125 1.296875
v 1.427484122634726 2.21875 0.703125
v 1.427484122634726 2.21875 1.296875
v 1.572515877365274 2.3024841226347257 0.703125
v 1.572515877365274 2.302484122634726 1.296875
v 1.65625 2.4475158773652743 0.703125
v 1.65625 2.4475158773652743 1.296875
v 1.65625 2.614984122634726 0.703125
v 1.65625 2.614984122634726 1.296875
v 1.5725158773652743 2.7600158773652743 0.703125
v 1.5725158773652743 2.7600158773652743 1.296875
v 1.427484122634726 2.84375 0.703125
v 1.427484122634726 2.84375 1.296875
v 1.2600158773652743 2.84375 0.703125
v 1.2600158773652743 2.84375 1.296875
v 1.114984122634726 2.7600158773652743 0.703125
v 1.114984122634726 2.7600158773652743 1.296875
v 1.03125 2.6149841226347257 0.703125
v 1.03125 2.6149841226347257 1.296875
v 1.03125 2.4475158773652743 0.703125
v 1.03125 2.4475158773652743 1.296875
v 1.1149841226347257 2.302484122634726 0.703125
v 1.1149841226347257 2.302484122634726 1.296875
v 1.260015877365274 2.21875 0.703125
v 1.260015877365274 2.21875 1.296875
vt 0.046875 0.984375
vt 0.015625 0.984375
vt 0.015625 0.953125
vt 0.109375 0.984375
vt 0.078125 0.984375
vt 0.078125 0.953125
vt 0.109375 0.953125
vt 0.171875 0.984375
vt 0.140625 0.984375
vt 0.140625 0.953125
vt 0.234375 0.984375
vt 0.203125 0.984375
vt 0.203125 0.953125
vt 0.296875 0.984375
vt 0.265625 0.984375
vt 0.265625 0.953125
vt 0.296875 0.953125
vt 0.359375 0.984375
vt 0.328125 0.984375
vt 0.328125 0.953125
vt 0.421875 0.984375
vt 0.390625 0.984375
vt 0.390625 0.953125
vt 0.484375 0.984375
vt 0.453125 0.984375
vt 0.453125 0.953125
vt 0.484375 0.953125
vt 0.546875 0.984375
vt 0.515625 0.984375
vt 0.515625 0.953125
vt 0.609375 0.984375
vt 0.578125 0.984375
vt 0.578125 0.953125
vt 0.671875 0.984375
vt 0.640625 0.984375
vt 0.640625 0.953125
vt 0.671875 0.953125
vt 0.734375 0.984375
vt 0.703125 0.984375
vt 0.703125 0.953125
vt 0.796875 0.984375
vt 0.765625 0.984375
vt 0.765625 0.953125
vt 0.859375 0.984375
vt 0.828125 0.984375
vt 0.828125 0.953125
vt 0.859375 0.953125
vt 0.921875 0.984375
vt 0.890625 0.984375
vt 0.890625 0.953125
vt 0.984375 0.984375
vt 0.953125 0.984375
vt 0.953125 0.953125
vt 0.046875 0.921875
vt 0.015625 0.921875
vt 0.015625 0.890625
vt 0.046875 0.890625
vt 0.109375 0.921875
vt 0.078125 0.921875
vt 0.078125 0.890625
vt 0.171875 0.921875
vt 0.140625 0.921875
vt 0.140625 0.890625
vt 0.234375 0.921875
vt 0.203125 0.921875
vt 0.203125 0.890625
vt 0.234375 0.890625
vt 0.296875 0.921875
vt 0.265625 0.921875
vt 0.265625 0.890625
vt 0.359375 0.921875
vt 0.328125 0.921875
vt 0.328125 0.890625
vt 0.421875 0.921875
vt 0.390625 0.921875
vt 0.390625 0.890625
vt 0.421875 0.890625
vt 0.484375 0.921875
vt 0.453125 0.921875
vt 0.453125 0.890625
vt 0.546875 0.921875
vt 0.515625 0.921875
vt 0.515625 0.890625
vt 0.609375 0.921875
vt 0.578125 0.921875
vt 0.578125 0.890625
vt 0.609375 0.890625
vt 0.671875 0.921875
vt 0.640625 0.921875
vt 0.640625 0.890625
vt 0.734375 0.921875
vt 0.703125 0.921875
vt 0.703125 0.890625
vt 0.796875 0.921875
vt 0.765625 0.921875
vt 0.765625 0.890625
vt 0.796875 0.890625
vt 0.859375 0.921875
vt 0.828125 0.921875
vt 0.828125 0.890625
vt 0.921875 0.921875
vt 0.890625 0.921875
vt 0.890625 0.890625
vt 0.984375 0.921875
vt 0.953125 0.921875
vt 0.953125 0.890625
vt 0.984375 0.890625
vt 0.046875 0.859375
vt 0.015625 0.859375
vt 0.015625 0.828125
vt 0.109375 0.859375
vt 0.078125 0.859375
vt 0.078125 0.828125
vt 0.171875 0.859375
vt 0.140625 0.859375
vt 0.140625 0.828125
vt 0.171875 0.828125
vt 0.234375 0.859375
vt 0.203125 0.859375
vt 0.203125 0.828125
vn 0 -2.220446049250313e-16 -1
vn 0.4999999999999999 -0.8660254037844389 1.9229626863835646e-16
vn 0 2.220446049250313e-16 1
vn 0 -2.220446049250313e-16 -1
vn 0.8660254037844388 -0.5000000000000001 2.379264487022358e-17
vn 0 2.220446049250313e-16 1
vn 0 -2.220446049250313e-16 -1
vn 1 0 0
vn 0 2.220446049250313e-16 1
vn 0 -2.220446049250313e-16 -1
vn 0.8660254037844387 0.49999999999999983 -1.1102230246251562e-16
vn 0 2.220446049250313e-16 1
vn 0 -2.220446049250313e-16 -1
vn 0.4999999999999999 0.8660254037844389 -1.9229626863835646e-16
vn 0 2.220446049250313e-16 1
vn 0 -2.220446049250313e-16 -1
vn 3.3147269885071027e-16 1 -2.220446049250313e-16
vn 0 2.220446049250313e-16 1
vn 0 -2.220446049250313e-16 -1
vn -0.4999999999999996 0.866025403784439 -1.9229626863835648e-16
vn 0 2.220446049250313e-16 1
vn 0 -2.220446049250313e-16 -1
vn -0.866025403784439 0.4999999999999996 -4.1238576388681855e-17
vn 0 2.220446049250313e-16 1
vn 0 -2.220446049250313e-16 -1
vn -1 3.3147269885071057e-16 -1.1621324914695773e-32
vn 0 2.220446049250313e-16 1
vn 0 -2.220446049250313e-16 -1
vn -0.866025403784439 -0.4999999999999996 1.1102230246251557e-16
vn 0 2.220446049250313e-16 1
vn 0 -2.220446049250313e-16 -1
vn -0.5000000000000001 -0.8660254037844386 1.9229626863835638e-16
vn 0 2.220446049250313e-16 1
vn 0 -2.220446049250313e-16 -1
vn 0 -1 2.220446049250313e-16
vn 0 2.220446049250313e-16 1
usemtl m_9ccbcfd8-f55e-06b3-06b0-37f761a99c15
f 101/353/96 99/354/96 97/355/96
f 99/356/97 101/357/97 102/358/97 100/359/97
f 100/360/98 102/361/98 98/362/98
f 103/363/99 101/364/99 97/365/99
f 101/366/100 103/367/100 104/368/100 102/369/100
f 102/370/101 104/371/101 98/372/101
f 105/373/102 103/374/102 97/375/102
f 103/376/103 105/377/103 106/378/103 104/379/103
f 104/380/104 106/381/104 98/382/104
f 107/383/105 105/384/105 97/385/105
f 105/386/106 107/387/106 108/388/106 106/389/106
f 106/390/107 108/391/107 98/392/107
f 109/393/108 107/394/108 97/395/108
f 107/396/109 109/397/109 110/398/109 108/399/109
f 108/400/110 110/401/110 98/402/110
f 111/403/111 109/404/111 97/405/111
f 109/406/112 111/407/112 112/408/112 110/409/112
f 110/410/113 112/411/113 98/412/113
f 113/413/114 111/414/114 97/415/114
f 111/416/115 113/417/115 114/418/115 112/419/115
f 112/420/116 114/421/116 98/422/116
f 115/423/117 113/424/117 97/425/117
f 113/426/118 115/427/118 116/428/118 114/429/118
f 114/430/119 116/431/119 98/432/119
f 117/433/120 115/434/120 97/435/120
f 115/436/121 117/437/121 118/438/121 116/439/121
f 116/440/122 118/441/122 98/442/122
f 119/443/123 117/444/123 97/445/123
f 117/446/124 119/447/124 120/448/124 118/449/124
f 118/450/125 120/451/125 98/452/125
f 121/453/126 119/454/126 97/455/126
f 119/456/127 121/457/127 122/458/127 120/459/127
f 120/460/128 122/461/128 98/462/128
f 99/463/129 121/464/129 97/465/129
f 121/466/130 99/467/130 100/468/130 122/469/130
f 122/470/131 100/471/131 98/472/131
o cylinder
v -1.21875 0.65625 0.703125
v -1.21875 0.6562500000000001 1.296875
v -1.135015877365274 0.34375000000000006 0.703125
v -1.135015877365274 0.34375000000000017 1.296875
v -0.9899841226347259 0.4274841226347258 0.703125
v -0.9899841226347259 0.42748412263472596 1.296875
v -0.90625 0.5725158773652742 0.703125
v -0.90625 0.5725158773652743 1.296875
v -0.90625 0.7399841226347259 0.703125
v -0.90625 0.7399841226347259 1.296875
v -0.9899841226347258 0.8850158773652742 0.703125
v -0.9899841226347258 0.8850158773652743 1.296875
v -1.135015877365274 0.96875 0.703125
v -1.135015877365274 0.9687500000000001 1.296875
v -1.3024841226347257 0.96875 0.703125
v -1.3024841226347257 0.9687500000000002 1.296875
v -1.447515877365274 0.8850158773652742 0.703125
v -1.447515877365274 0.8850158773652743 1.296875
v -1.53125 0.7399841226347258 0.703125
v -1.53125 0.7399841226347259 1.296875
v -1.53125 0.5725158773652743 0.703125
v -1.53125 0.5725158773652744 1.296875
v -1.4475158773652743 0.4274841226347259 0.703125
v -1.4475158773652743 0.42748412263472607 1.296875
v -1.302484122634726 0.34375000000000006 0.703125
v -1.302484122634726 0.34375000000000017 1.296875
vt 0.046875 0.984375
vt 0.015625 0.984375
vt 0.015625 0.953125
vt 0.109375 0.984375
vt 0.078125 0.984375
vt 0.078125 0.953125
vt 0.109375 0.953125
vt 0.171875 0.984375
vt 0.140625 0.984375
vt 0.140625 0.953125
vt 0.234375 0.984375
vt 0.203125 0.984375
vt 0.203125 0.953125
vt 0.296875 0.984375
vt 0.265625 0.984375
vt 0.265625 0.953125
vt 0.296875 0.953125
vt 0.359375 0.984375
vt 0.328125 0.984375
vt 0.328125 0.953125
vt 0.421875 0.984375
vt 0.390625 0.984375
vt 0.390625 0.953125
vt 0.484375 0.984375
vt 0.453125 0.984375
vt 0.453125 0.953125
vt 0.484375 0.953125
vt 0.546875 0.984375
vt 0.515625 0.984375
vt 0.515625 0.953125
vt 0.609375 0.984375
vt 0.578125 0.984375
vt 0.578125 0.953125
vt 0.671875 0.984375
vt 0.640625 0.984375
vt 0.640625 0.953125
vt 0.671875 0.953125
vt 0.734375 0.984375
vt 0.703125 0.984375
vt 0.703125 0.953125
vt 0.796875 0.984375
vt 0.765625 0.984375
vt 0.765625 0.953125
vt 0.859375 0.984375
vt 0.828125 0.984375
vt 0.828125 0.953125
vt 0.859375 0.953125
vt 0.921875 0.984375
vt 0.890625 0.984375
vt 0.890625 0.953125
vt 0.984375 0.984375
vt 0.953125 0.984375
vt 0.953125 0.953125
vt 0.046875 0.921875
vt 0.015625 0.921875
vt 0.015625 0.890625
vt 0.046875 0.890625
vt 0.109375 0.921875
vt 0.078125 0.921875
vt 0.078125 0.890625
vt 0.171875 0.921875
vt 0.140625 0.921875
vt 0.140625 0.890625
vt 0.234375 0.921875
vt 0.203125 0.921875
vt 0.203125 0.890625
vt 0.234375 0.890625
vt 0.296875 0.921875
vt 0.265625 0.921875
vt 0.265625 0.890625
vt 0.359375 0.921875
vt 0.328125 0.921875
vt 0.328125 0.890625
vt 0.421875 0.921875
vt 0.390625 0.921875
vt 0.390625 0.890625
vt 0.421875 0.890625
vt 0.484375 0.921875
vt 0.453125 0.921875
vt 0.453125 0.890625
vt 0.546875 0.921875
vt 0.515625 0.921875
vt 0.515625 0.890625
vt 0.609375 0.921875
vt 0.578125 0.921875
vt 0.578125 0.890625
vt 0.609375 0.890625
vt 0.671875 0.921875
vt 0.640625 0.921875
vt 0.640625 0.890625
vt 0.734375 0.921875
vt 0.703125 0.921875
vt 0.703125 0.890625
vt 0.796875 0.921875
vt 0.765625 0.921875
vt 0.765625 0.890625
vt 0.796875 0.890625
vt 0.859375 0.921875
vt 0.828125 0.921875
vt 0.828125 0.890625
vt 0.921875 0.921875
vt 0.890625 0.921875
vt 0.890625 0.890625
vt 0.984375 0.921875
vt 0.953125 0.921875
vt 0.953125 0.890625
vt 0.984375 0.890625
vt 0.046875 0.859375
vt 0.015625 0.859375
vt 0.015625 0.828125
vt 0.109375 0.859375
vt 0.078125 0.859375
vt 0.078125 0.828125
vt 0.171875 0.859375
vt 0.140625 0.859375
vt 0.140625 0.828125
vt 0.171875 0.828125
vt 0.234375 0.859375
vt 0.203125 0.859375
vt 0.203125 0.828125
vn 0 -2.220446049250313e-16 -1
vn 0.4999999999999999 -0.8660254037844389 1.9229626863835646e-16
vn 0 2.220446049250313e-16 1
vn 0 -2.220446049250313e-16 -1
vn 0.8660254037844388 -0.5000000000000001 2.379264487022358e-17
vn 0 2.220446049250313e-16 1
vn 0 -2.220446049250313e-16 -1
vn 1 0 0
vn 0 2.220446049250313e-16 1
vn 0 -2.220446049250313e-16 -1
vn 0.8660254037844387 0.49999999999999983 -1.1102230246251562e-16
vn 0 2.220446049250313e-16 1
vn 0 -2.220446049250313e-16 -1
vn 0.4999999999999999 0.8660254037844389 -1.9229626863835646e-16
vn 0 2.220446049250313e-16 1
vn 0 -2.220446049250313e-16 -1
vn 3.3147269885071027e-16 1 -2.220446049250313e-16
vn 0 2.220446049250313e-16 1
vn 0 -2.220446049250313e-16 -1
vn -0.4999999999999996 0.866025403784439 -1.9229626863835648e-16
vn 0 2.220446049250313e-16 1
vn 0 -2.220446049250313e-16 -1
vn -0.866025403784439 0.4999999999999996 -4.1238576388681855e-17
vn 0 2.220446049250313e-16 1
vn 0 -2.220446049250313e-16 -1
vn -1 3.3147269885071057e-16 -1.1621324914695773e-32
vn 0 2.220446049250313e-16 1
vn 0 -2.220446049250313e-16 -1
vn -0.866025403784439 -0.4999999999999996 1.1102230246251557e-16
vn 0 2.220446049250313e-16 1
vn 0 -2.220446049250313e-16 -1
vn -0.5000000000000001 -0.8660254037844386 1.9229626863835638e-16
vn 0 2.220446049250313e-16 1
vn 0 -2.220446049250313e-16 -1
vn 0 -1 2.220446049250313e-16
vn 0 2.220446049250313e-16 1
usemtl m_9ccbcfd8-f55e-06b3-06b0-37f761a99c15
f 127/473/132 125/474/132 123/475/132
f 125/476/133 127/477/133 128/478/133 126/479/133
f 126/480/134 128/481/134 124/482/134
f 129/483/135 127/484/135 123/485/135
f 127/486/136 129/487/136 130/488/136 128/489/136
f 128/490/137 130/491/137 124/492/137
f 131/493/138 129/494/138 123/495/138
f 129/496/139 131/497/139 132/498/139 130/499/139
f 130/500/140 132/501/140 124/502/140
f 133/503/141 131/504/141 123/505/141
f 131/506/142 133/507/142 134/508/142 132/509/142
f 132/510/143 134/511/143 124/512/143
f 135/513/144 133/514/144 123/515/144
f 133/516/145 135/517/145 136/518/145 134/519/145
f 134/520/146 136/521/146 124/522/146
f 137/523/147 135/524/147 123/525/147
f 135/526/148 137/527/148 138/528/148 136/529/148
f 136/530/149 138/531/149 124/532/149
f 139/533/150 137/534/150 123/535/150
f 137/536/151 139/537/151 140/538/151 138/539/151
f 138/540/152 140/541/152 124/542/152
f 141/543/153 139/544/153 123/545/153
f 139/546/154 141/547/154 142/548/154 140/549/154
f 140/550/155 142/551/155 124/552/155
f 143/553/156 141/554/156 123/555/156
f 141/556/157 143/557/157 144/558/157 142/559/157
f 142/560/158 144/561/158 124/562/158
f 145/563/159 143/564/159 123/565/159
f 143/566/160 145/567/160 146/568/160 144/569/160
f 144/570/161 146/571/161 124/572/161
f 147/573/162 145/574/162 123/575/162
f 145/576/163 147/577/163 148/578/163 146/579/163
f 146/580/164 148/581/164 124/582/164
f 125/583/165 147/584/165 123/585/165
f 147/586/166 125/587/166 126/588/166 148/589/166
f 148/590/167 126/591/167 124/592/167
o mesh
v -1.5624999999999996 1.0000000000000007 -0.6875
v -1.5624999999999993 1.0000000000000009 0.875
v -1.5624999999999998 0.3125000000000006 -0.6874999999999999
v -1.5624999999999996 0.3125000000000009 0.8750000000000001
v -0.8749999999999996 1.0000000000000004 -0.6875000000000001
v -0.8749999999999993 1.0000000000000004 0.8749999999999999
v -0.8749999999999999 0.31250000000000033 -0.6875
v -0.8749999999999997 0.3125000000000006 0.875
vt 0.125 1
vt 0 1
vt 0 0.9375
vt 0.125 0.9375
vt 0.125 0.9375
vt 0.125 1
vt 0 1
vt 0 0.9375
vt 0 0.875
vt 0.125 0.875
vt 0.125 1
vt 0 1
vt 0.125 0.875
vt 0.125 1
vt 0 1
vt 0 0.875
vt 0.125 0.9375
vt 0.125 1
vt 0 1
vt 0 0.9375
vt 0.125 1
vt 0 1
vt 0 0.9375
vt 0.125 0.9375
vn -1 4.651921886979563e-16 1.2246467991473535e-16
vn 1 -4.651921886979563e-16 -1.2246467991473535e-16
vn 4.651921886979563e-16 1 -1.8344700758454725e-16
vn -4.651921886979563e-16 -1 1.8344700758454725e-16
vn -1.224646799147354e-16 -1.834470075845472e-16 -1
vn 1.224646799147354e-16 1.834470075845472e-16 1
usemtl none
f 150/593/168 149/594/168 151/595/168 152/596/168
f 155/597/169 153/598/169 154/599/169 156/600/169
f 153/601/170 149/602/170 150/603/170 154/604/170
f 152/605/171 151/606/171 155/607/171 156/608/171
f 151/609/172 149/610/172 153/611/172 155/612/172
f 154/613/173 150/614/173 152/615/173 156/616/173
o mesh
v 1.0000000000000013 2.8749999999999996 -0.6875000000000007
v 1.0000000000000016 2.875 0.8749999999999993
v 1.000000000000001 2.1874999999999996 -0.6875000000000006
v 1.0000000000000013 2.1875 0.8749999999999994
v 1.6875000000000013 2.874999999999999 -0.6875000000000008
v 1.6875000000000016 2.8749999999999996 0.8749999999999992
v 1.6875000000000009 2.187499999999999 -0.6875000000000007
v 1.6875000000000013 2.1874999999999996 0.8749999999999993
vt 0.125 1
vt 0 1
vt 0 0.9375
vt 0.125 0.9375
vt 0.125 0.9375
vt 0.125 1
vt 0 1
vt 0 0.9375
vt 0 0.875
vt 0.125 0.875
vt 0.125 1
vt 0 1
vt 0.125 0.875
vt 0.125 1
vt 0 1
vt 0 0.875
vt 0.125 0.9375
vt 0.125 1
vt 0 1
vt 0 0.9375
vt 0.125 1
vt 0 1
vt 0 0.9375
vt 0.125 0.9375
vn -1 4.651921886979563e-16 1.2246467991473535e-16
vn 1 -4.651921886979563e-16 -1.2246467991473535e-16
vn 4.651921886979563e-16 1 -1.8344700758454725e-16
vn -4.651921886979563e-16 -1 1.8344700758454725e-16
vn -1.224646799147354e-16 -1.834470075845472e-16 -1
vn 1.224646799147354e-16 1.834470075845472e-16 1
usemtl none
f 158/617/174 157/618/174 159/619/174 160/620/174
f 163/621/175 161/622/175 162/623/175 164/624/175
f 161/625/176 157/626/176 158/627/176 162/628/176
f 160/629/177 159/630/177 163/631/177 164/632/177
f 159/633/178 157/634/178 161/635/178 163/636/178
f 162/637/179 158/638/179 160/639/179 164/640/179
o mesh
v -3.5940933463237257 3.9963207833397036 0.4687500000000058
v -2.7749413020347315 3.4227443469886527 -0.4687499999999957
v -3.4506992372359635 4.201108794411951 0.4687500000000058
v -2.63154719294697 3.627532358060901 -0.4687499999999957
v 3.1639110190604423 -0.7356848165564469 0.4687499999999936
v 2.3447589747714463 -0.16210838020539464 -0.46875000000000494
v 3.3073051281482044 -0.5308968054841996 0.46874999999999356
v 2.488153083859208 0.042679630866853335 -0.46875000000000494
vt 0.17578125 0.8359375
vt 0.08984375 0.8359375
vt 0.08984375 0.8203125
vt 0.17578125 0.8203125
vt 0.0859375 0.8203125
vt 0.0859375 0.8359375
vt 0 0.8359375
vt 0 0.8203125
vt 0.515625 1
vt 0 1
vt 0.0625 0.94140625
vt 0.453125 0.94140625
vt 0.453125 0.87890625
vt 0.515625 0.9375
vt 0 0.9375
vt 0.0625 0.87890625
vt 0.515625 0.859375
vt 0.515625 0.875
vt 0 0.875
vt 0 0.859375
vt 0.390625 0.85546875
vt 0 0.85546875
vt 0 0.83984375
vt 0.390625 0.83984375
vn -0.56025177389646 0.39229251537766574 -0.7295372041400862
vn 0.5602517738964585 -0.3922925153776647 -0.7295372041400879
vn -0.5735764363510486 -0.81915204428899 -9.53919786429212e-17
vn 0.5735764363510486 0.81915204428899 3.3223955722962126e-16
vn 1.2215131864937937e-15 -8.271960920303137e-16 1
vn -1.2215131864937937e-15 8.271960920303137e-16 -1
usemtl m_5c8b0c5e-7da7-8538-2979-2ef4eddb4bfa
f 166/641/180 165/642/180 167/643/180 168/644/180
f 171/645/181 169/646/181 170/647/181 172/648/181
f 169/649/182 165/650/182 166/651/182 170/652/182
f 168/653/183 167/654/183 171/655/183 172/656/183
f 167/657/184 165/658/184 169/659/184 171/660/184
f 170/661/185 166/662/185 168/663/185 172/664/185
o cylinder
v -1.3437499999999987 2.531250000000001 1.2343749999999998
v -1.3437499999999987 2.531250000000001 0.6406249999999998
v -1.4274841226347246 2.218750000000001 1.2343749999999998
v -1.4274841226347248 2.218750000000001 0.6406249999999998
v -1.572515877365273 2.302484122634727 1.2343749999999998
v -1.572515877365273 2.302484122634727 0.6406249999999998
v -1.6562499999999987 2.447515877365275 1.2343749999999998
v -1.656249999999999 2.447515877365275 0.6406249999999998
v -1.6562499999999987 2.614984122634727 1.2343749999999998
v -1.6562499999999987 2.614984122634727 0.6406249999999998
v -1.5725158773652728 2.760015877365275 1.2343749999999998
v -1.5725158773652728 2.760015877365275 0.6406249999999998
v -1.4274841226347244 2.843750000000001 1.2343749999999998
v -1.4274841226347246 2.843750000000001 0.6406249999999998
v -1.2600158773652728 2.843750000000001 1.2343749999999998
v -1.260015877365273 2.843750000000001 0.6406249999999998
v -1.1149841226347244 2.7600158773652748 1.2343749999999998
v -1.1149841226347246 2.760015877365275 0.6406249999999998
v -1.0312499999999987 2.6149841226347266 1.2343749999999998
v -1.0312499999999987 2.6149841226347266 0.6406249999999998
v -1.0312499999999987 2.447515877365275 1.2343749999999998
v -1.031249999999999 2.447515877365275 0.6406249999999998
v -1.1149841226347246 2.3024841226347266 1.2343749999999998
v -1.1149841226347246 2.3024841226347266 0.6406249999999998
v -1.260015877365273 2.218750000000001 1.2343749999999998
v -1.260015877365273 2.218750000000001 0.6406249999999998
vt 0.046875 0.984375
vt 0.015625 0.984375
vt 0.015625 0.953125
vt 0.109375 0.984375
vt 0.078125 0.984375
vt 0.078125 0.953125
vt 0.109375 0.953125
vt 0.171875 0.984375
vt 0.140625 0.984375
vt 0.140625 0.953125
vt 0.234375 0.984375
vt 0.203125 0.984375
vt 0.203125 0.953125
vt 0.296875 0.984375
vt 0.265625 0.984375
vt 0.265625 0.953125
vt 0.296875 0.953125
vt 0.359375 0.984375
vt 0.328125 0.984375
vt 0.328125 0.953125
vt 0.421875 0.984375
vt 0.390625 0.984375
vt 0.390625 0.953125
vt 0.484375 0.984375
vt 0.453125 0.984375
vt 0.453125 0.953125
vt 0.484375 0.953125
vt 0.546875 0.984375
vt 0.515625 0.984375
vt 0.515625 0.953125
vt 0.609375 0.984375
vt 0.578125 0.984375
vt 0.578125 0.953125
vt 0.671875 0.984375
vt 0.640625 0.984375
vt 0.640625 0.953125
vt 0.671875 0.953125
vt 0.734375 0.984375
vt 0.703125 0.984375
vt 0.703125 0.953125
vt 0.796875 0.984375
vt 0.765625 0.984375
vt 0.765625 0.953125
vt 0.859375 0.984375
vt 0.828125 0.984375
vt 0.828125 0.953125
vt 0.859375 0.953125
vt 0.921875 0.984375
vt 0.890625 0.984375
vt 0.890625 0.953125
vt 0.984375 0.984375
vt 0.953125 0.984375
vt 0.953125 0.953125
vt 0.046875 0.921875
vt 0.015625 0.921875
vt 0.015625 0.890625
vt 0.046875 0.890625
vt 0.109375 0.921875
vt 0.078125 0.921875
vt 0.078125 0.890625
vt 0.171875 0.921875
vt 0.140625 0.921875
vt 0.140625 0.890625
vt 0.234375 0.921875
vt 0.203125 0.921875
vt 0.203125 0.890625
vt 0.234375 0.890625
vt 0.296875 0.921875
vt 0.265625 0.921875
vt 0.265625 0.890625
vt 0.359375 0.921875
vt 0.328125 0.921875
vt 0.328125 0.890625
vt 0.421875 0.921875
vt 0.390625 0.921875
vt 0.390625 0.890625
vt 0.421875 0.890625
vt 0.484375 0.921875
vt 0.453125 0.921875
vt 0.453125 0.890625
vt 0.546875 0.921875
vt 0.515625 0.921875
vt 0.515625 0.890625
vt 0.609375 0.921875
vt 0.578125 0.921875
vt 0.578125 0.890625
vt 0.609375 0.890625
vt 0.671875 0.921875
vt 0.640625 0.921875
vt 0.640625 0.890625
vt 0.734375 0.921875
vt 0.703125 0.921875
vt 0.703125 0.890625
vt 0.796875 0.921875
vt 0.765625 0.921875
vt 0.765625 0.890625
vt 0.796875 0.890625
vt 0.859375 0.921875
vt 0.828125 0.921875
vt 0.828125 0.890625
vt 0.921875 0.921875
vt 0.890625 0.921875
vt 0.890625 0.890625
vt 0.984375 0.921875
vt 0.953125 0.921875
vt 0.953125 0.890625
vt 0.984375 0.890625
vt 0.046875 0.859375
vt 0.015625 0.859375
vt 0.015625 0.828125
vt 0.109375 0.859375
vt 0.078125 0.859375
vt 0.078125 0.828125
vt 0.171875 0.859375
vt 0.140625 0.859375
vt 0.140625 0.828125
vt 0.171875 0.828125
vt 0.234375 0.859375
vt 0.203125 0.859375
vt 0.203125 0.828125
vn 1.224646799147353e-16 -3.859759734048411e-17 1
vn -0.5000000000000003 -0.8660254037844387 2.7805840135465776e-17
vn -1.224646799147353e-16 3.859759734048411e-17 -1
vn 1.224646799147353e-16 -3.859759734048411e-17 1
vn -0.8660254037844388 -0.4999999999999996 1.7398838279454076e-16
vn -1.224646799147353e-16 3.859759734048411e-17 -1
vn 1.224646799147353e-16 -3.859759734048411e-17 1
vn -1 4.651921886979563e-16 1.2246467991473535e-16
vn -1.224646799147353e-16 3.859759734048411e-17 -1
vn 1.224646799147353e-16 -3.859759734048411e-17 1
vn -0.8660254037844387 0.5000000000000003 1.2535632254273277e-16
vn -1.224646799147353e-16 3.859759734048411e-17 -1
vn 1.224646799147353e-16 -3.859759734048411e-17 1
vn -0.4999999999999995 0.8660254037844392 9.465883977926955e-17
vn -1.224646799147353e-16 3.859759734048411e-17 -1
vn 1.224646799147353e-16 -3.859759734048411e-17 1
vn 1.3371948984724598e-16 1 3.8597597340484093e-17
vn -1.224646799147353e-16 3.859759734048411e-17 -1
vn 1.224646799147353e-16 -3.859759734048411e-17 1
vn 0.5 0.8660254037844388 -2.7805840135465733e-17
vn -1.224646799147353e-16 3.859759734048411e-17 -1
vn 1.224646799147353e-16 -3.859759734048411e-17 1
vn 0.8660254037844393 0.4999999999999992 -1.5654245127608243e-16
vn -1.224646799147353e-16 3.859759734048411e-17 -1
vn 1.224646799147353e-16 -3.859759734048411e-17 1
vn 1 -1.337194898472457e-16 -1.224646799147354e-16
vn -1.224646799147353e-16 3.859759734048411e-17 -1
vn 1.224646799147353e-16 -3.859759734048411e-17 1
vn 0.8660254037844388 -0.5 -1.2535632254273277e-16
vn -1.224646799147353e-16 3.859759734048411e-17 -1
vn 1.224646799147353e-16 -3.859759734048411e-17 1
vn 0.4999999999999997 -0.8660254037844388 -9.465883977926955e-17
vn -1.224646799147353e-16 3.859759734048411e-17 -1
vn 1.224646799147353e-16 -3.859759734048411e-17 1
vn -4.651921886979563e-16 -1 -3.859759734048405e-17
vn -1.224646799147353e-16 3.859759734048411e-17 -1
usemtl m_9ccbcfd8-f55e-06b3-06b0-37f761a99c15
f 177/665/186 175/666/186 173/667/186
f 175/668/187 177/669/187 178/670/187 176/671/187
f 176/672/188 178/673/188 174/674/188
f 179/675/189 177/676/189 173/677/189
f 177/678/190 179/679/190 180/680/190 178/681/190
f 178/682/191 180/683/191 174/684/191
f 181/685/192 179/686/192 173/687/192
f 179/688/193 181/689/193 182/690/193 180/691/193
f 180/692/194 182/693/194 174/694/194
f 183/695/195 181/696/195 173/697/195
f 181/698/196 183/699/196 184/700/196 182/701/196
f 182/702/197 184/703/197 174/704/197
f 185/705/198 183/706/198 173/707/198
f 183/708/199 185/709/199 186/710/199 184/711/199
f 184/712/200 186/713/200 174/714/200
f 187/715/201 185/716/201 173/717/201
f 185/718/202 187/719/202 188/720/202 186/721/202
f 186/722/203 188/723/203 174/724/203
f 189/725/204 187/726/204 173/727/204
f 187/728/205 189/729/205 190/730/205 188/731/205
f 188/732/206 190/733/206 174/734/206
f 191/735/207 189/736/207 173/737/207
f 189/738/208 191/739/208 192/740/208 190/741/208
f 190/742/209 192/743/209 174/744/209
f 193/745/210 191/746/210 173/747/210
f 191/748/211 193/749/211 194/750/211 192/751/211
f 192/752/212 194/753/212 174/754/212
f 195/755/213 193/756/213 173/757/213
f 193/758/214 195/759/214 196/760/214 194/761/214
f 194/762/215 196/763/215 174/764/215
f 197/765/216 195/766/216 173/767/216
f 195/768/217 197/769/217 198/770/217 196/771/217
f 196/772/218 198/773/218 174/774/218
f 175/775/219 197/776/219 173/777/219
f 197/778/220 175/779/220 176/780/220 198/781/220
f 198/782/221 176/783/221 174/784/221
o cylinder
v 1.2187500000000004 0.6562499999999997 1.2343749999999998
v 1.2187500000000004 0.6562499999999997 0.6406249999999998
v 1.1350158773652745 0.3437499999999997 1.2343749999999998
v 1.1350158773652743 0.3437499999999997 0.6406249999999998
v 0.9899841226347262 0.42748412263472557 1.2343749999999998
v 0.9899841226347261 0.42748412263472557 0.6406249999999998
v 0.9062500000000004 0.572515877365274 1.2343749999999998
v 0.9062500000000002 0.572515877365274 0.6406249999999998
v 0.9062500000000004 0.7399841226347257 1.2343749999999998
v 0.9062500000000004 0.7399841226347257 0.6406249999999998
v 0.9899841226347263 0.8850158773652739 1.2343749999999998
v 0.9899841226347262 0.885015877365274 0.6406249999999998
v 1.1350158773652748 0.9687499999999997 1.2343749999999998
v 1.1350158773652745 0.9687499999999997 0.6406249999999998
v 1.3024841226347263 0.9687499999999996 1.2343749999999998
v 1.3024841226347261 0.9687499999999997 0.6406249999999998
v 1.4475158773652748 0.8850158773652738 1.2343749999999998
v 1.4475158773652745 0.8850158773652738 0.6406249999999998
v 1.5312500000000004 0.7399841226347253 1.2343749999999998
v 1.5312500000000004 0.7399841226347252 0.6406249999999998
v 1.5312500000000004 0.5725158773652739 1.2343749999999998
v 1.5312500000000002 0.5725158773652738 0.6406249999999998
v 1.4475158773652745 0.42748412263472546 1.2343749999999998
v 1.4475158773652745 0.42748412263472546 0.6406249999999998
v 1.3024841226347261 0.3437499999999996 1.2343749999999998
v 1.3024841226347261 0.34374999999999967 0.6406249999999998
vt 0.046875 0.984375
vt 0.015625 0.984375
vt 0.015625 0.953125
vt 0.109375 0.984375
vt 0.078125 0.984375
vt 0.078125 0.953125
vt 0.109375 0.953125
vt 0.171875 0.984375
vt 0.140625 0.984375
vt 0.140625 0.953125
vt 0.234375 0.984375
vt 0.203125 0.984375
vt 0.203125 0.953125
vt 0.296875 0.984375
vt 0.265625 0.984375
vt 0.265625 0.953125
vt 0.296875 0.953125
vt 0.359375 0.984375
vt 0.328125 0.984375
vt 0.328125 0.953125
vt 0.421875 0.984375
vt 0.390625 0.984375
vt 0.390625 0.953125
vt 0.484375 0.984375
vt 0.453125 0.984375
vt 0.453125 0.953125
vt 0.484375 0.953125
vt 0.546875 0.984375
vt 0.515625 0.984375
vt 0.515625 0.953125
vt 0.609375 0.984375
vt 0.578125 0.984375
vt 0.578125 0.953125
vt 0.671875 0.984375
vt 0.640625 0.984375
vt 0.640625 0.953125
vt 0.671875 0.953125
vt 0.734375 0.984375
vt 0.703125 0.984375
vt 0.703125 0.953125
vt 0.796875 0.984375
vt 0.765625 0.984375
vt 0.765625 0.953125
vt 0.859375 0.984375
vt 0.828125 0.984375
vt 0.828125 0.953125
vt 0.859375 0.953125
vt 0.921875 0.984375
vt 0.890625 0.984375
vt 0.890625 0.953125
vt 0.984375 0.984375
vt 0.953125 0.984375
vt 0.953125 0.953125
vt 0.046875 0.921875
vt 0.015625 0.921875
vt 0.015625 0.890625
vt 0.046875 0.890625
vt 0.109375 0.921875
vt 0.078125 0.921875
vt 0.078125 0.890625
vt 0.171875 0.921875
vt 0.140625 0.921875
vt 0.140625 0.890625
vt 0.234375 0.921875
vt 0.203125 0.921875
vt 0.203125 0.890625
vt 0.234375 0.890625
vt 0.296875 0.921875
vt 0.265625 0.921875
vt 0.265625 0.890625
vt 0.359375 0.921875
vt 0.328125 0.921875
vt 0.328125 0.890625
vt 0.421875 0.921875
vt 0.390625 0.921875
vt 0.390625 0.890625
vt 0.421875 0.890625
vt 0.484375 0.921875
vt 0.453125 0.921875
vt 0.453125 0.890625
vt 0.546875 0.921875
vt 0.515625 0.921875
vt 0.515625 0.890625
vt 0.609375 0.921875
vt 0.578125 0.921875
vt 0.578125 0.890625
vt 0.609375 0.890625
vt 0.671875 0.921875
vt 0.640625 0.921875
vt 0.640625 0.890625
vt 0.734375 0.921875
vt 0.703125 0.921875
vt 0.703125 0.890625
vt 0.796875 0.921875
vt 0.765625 0.921875
vt 0.765625 0.890625
vt 0.796875 0.890625
vt 0.859375 0.921875
vt 0.828125 0.921875
vt 0.828125 0.890625
vt 0.921875 0.921875
vt 0.890625 0.921875
vt 0.890625 0.890625
vt 0.984375 0.921875
vt 0.953125 0.921875
vt 0.953125 0.890625
vt 0.984375 0.890625
vt 0.046875 0.859375
vt 0.015625 0.859375
vt 0.015625 0.828125
vt 0.109375 0.859375
vt 0.078125 0.859375
vt 0.078125 0.828125
vt 0.171875 0.859375
vt 0.140625 0.859375
vt 0.140625 0.828125
vt 0.171875 0.828125
vt 0.234375 0.859375
vt 0.203125 0.859375
vt 0.203125 0.828125
vn 1.224646799147353e-16 -3.859759734048411e-17 1
vn -0.5000000000000003 -0.8660254037844387 2.7805840135465776e-17
vn -1.224646799147353e-16 3.859759734048411e-17 -1
vn 1.224646799147353e-16 -3.859759734048411e-17 1
vn -0.8660254037844388 -0.4999999999999996 1.7398838279454076e-16
vn -1.224646799147353e-16 3.859759734048411e-17 -1
vn 1.224646799147353e-16 -3.859759734048411e-17 1
vn -1 4.651921886979563e-16 1.2246467991473535e-16
vn -1.224646799147353e-16 3.859759734048411e-17 -1
vn 1.224646799147353e-16 -3.859759734048411e-17 1
vn -0.8660254037844387 0.5000000000000003 1.2535632254273277e-16
vn -1.224646799147353e-16 3.859759734048411e-17 -1
vn 1.224646799147353e-16 -3.859759734048411e-17 1
vn -0.4999999999999995 0.8660254037844392 9.465883977926955e-17
vn -1.224646799147353e-16 3.859759734048411e-17 -1
vn 1.224646799147353e-16 -3.859759734048411e-17 1
vn 1.3371948984724598e-16 1 3.8597597340484093e-17
vn -1.224646799147353e-16 3.859759734048411e-17 -1
vn 1.224646799147353e-16 -3.859759734048411e-17 1
vn 0.5 0.8660254037844388 -2.7805840135465733e-17
vn -1.224646799147353e-16 3.859759734048411e-17 -1
vn 1.224646799147353e-16 -3.859759734048411e-17 1
vn 0.8660254037844393 0.4999999999999992 -1.5654245127608243e-16
vn -1.224646799147353e-16 3.859759734048411e-17 -1
vn 1.224646799147353e-16 -3.859759734048411e-17 1
vn 1 -1.337194898472457e-16 -1.224646799147354e-16
vn -1.224646799147353e-16 3.859759734048411e-17 -1
vn 1.224646799147353e-16 -3.859759734048411e-17 1
vn 0.8660254037844388 -0.5 -1.2535632254273277e-16
vn -1.224646799147353e-16 3.859759734048411e-17 -1
vn 1.224646799147353e-16 -3.859759734048411e-17 1
vn 0.4999999999999997 -0.8660254037844388 -9.465883977926955e-17
vn -1.224646799147353e-16 3.859759734048411e-17 -1
vn 1.224646799147353e-16 -3.859759734048411e-17 1
vn -4.651921886979563e-16 -1 -3.859759734048405e-17
vn -1.224646799147353e-16 3.859759734048411e-17 -1
usemtl m_9ccbcfd8-f55e-06b3-06b0-37f761a99c15
f 203/785/222 201/786/222 199/787/222
f 201/788/223 203/789/223 204/790/223 202/791/223
f 202/792/224 204/793/224 200/794/224
f 205/795/225 203/796/225 199/797/225
f 203/798/226 205/799/226 206/800/226 204/801/226
f 204/802/227 206/803/227 200/804/227
f 207/805/228 205/806/228 199/807/228
f 205/808/229 207/809/229 208/810/229 206/811/229
f 206/812/230 208/813/230 200/814/230
f 209/815/231 207/816/231 199/817/231
f 207/818/232 209/819/232 210/820/232 208/821/232
f 208/822/233 210/823/233 200/824/233
f 211/825/234 209/826/234 199/827/234
f 209/828/235 211/829/235 212/830/235 210/831/235
f 210/832/236 212/833/236 200/834/236
f 213/835/237 211/836/237 199/837/237
f 211/838/238 213/839/238 214/840/238 212/841/238
f 212/842/239 214/843/239 200/844/239
f 215/845/240 213/846/240 199/847/240
f 213/848/241 215/849/241 216/850/241 214/851/241
f 214/852/242 216/853/242 200/854/242
f 217/855/243 215/856/243 199/857/243
f 215/858/244 217/859/244 218/860/244 216/861/244
f 216/862/245 218/863/245 200/864/245
f 219/865/246 217/866/246 199/867/246
f 217/868/247 219/869/247 220/870/247 218/871/247
f 218/872/248 220/873/248 200/874/248
f 221/875/249 219/876/249 199/877/249
f 219/878/250 221/879/250 222/880/250 220/881/250
f 220/882/251 222/883/251 200/884/251
f 223/885/252 221/886/252 199/887/252
f 221/888/253 223/889/253 224/890/253 222/891/253
f 222/892/254 224/893/254 200/894/254
f 201/895/255 223/896/255 199/897/255
f 223/898/256 201/899/256 202/900/256 224/901/256
f 224/902/257 202/903/257 200/904/257
o mesh
v -1.0648339055699063 2.5158951984068816 -0.6250000000000003
v -1.0648339055699052 2.5158951984068807 0.6249999999999997
v -1.2082280146576678 2.311107187334634 -0.6250000000000002
v -1.2082280146576663 2.311107187334633 0.6249999999999998
v 1.4950162328331924 0.7234688348098618 -0.6250000000000003
v 1.4950162328331895 0.7234688348098638 0.6249999999999997
v 1.351622123745431 0.5186808237376139 -0.6250000000000002
v 1.3516221237454284 0.5186808237376164 0.6249999999999998
vt 0.5546875 1
vt 0.3984375 1
vt 0.3984375 0.96875
vt 0.5546875 0.96875
vt 0.5546875 0.9296875
vt 0.5546875 0.9609375
vt 0.3984375 0.9609375
vt 0.3984375 0.9296875
vt 0.390625 0.8359375
vt 0 0.8359375
vt 0 0.6796875
vt 0.390625 0.6796875
vt 0 1
vt 0 0.84375
vt 0.390625 0.84375
vt 0.390625 1
vt 0.390625 0.6015625
vt 0.390625 0.6328125
vt 0 0.6328125
vt 0 0.6015625
vt 0.390625 0.671875
vt 0 0.671875
vt 0 0.640625
vt 0.390625 0.640625
vn -0.8191520442889916 0.5735764363510464 1.5938174674959701e-15
vn 0.8191520442889916 -0.5735764363510464 2.8470746310046565e-15
vn 0.5735764363510464 0.8191520442889916 3.1239320585412963e-16
vn -0.5735764363510464 -0.8191520442889916 2.871272274434549e-16
vn -1.224646799147354e-16 -1.834470075845472e-16 -1
vn 1.224646799147354e-16 1.834470075845472e-16 1
usemtl m_37be2367-b2fe-034c-2668-5be83981cb8c
f 226/905/258 225/906/258 227/907/258 228/908/258
f 231/909/259 229/910/259 230/911/259 232/912/259
f 229/913/260 225/914/260 226/915/260 230/916/260
f 228/917/261 227/918/261 231/919/261 232/920/261
f 227/921/262 225/922/262 229/923/262 231/924/262
f 230/925/263 226/926/263 228/927/263 232/928/263
o mesh
v -0.8405459187330304 1.4403455270798555 -0.5000000000000002
v -0.8405459187330304 1.4403455270798555 0.49999999999999983
v -1.1091957229064426 0.5811498041734124 -0.5
v -1.1091957229064426 0.5811498041734127 0.5
v 1.1446071948168566 2.695252741085412 -0.5000000000000007
v 1.1446071948168566 2.695252741085412 0.49999999999999933
v 0.8759573906434445 1.8360570181789697 -0.5000000000000004
v 0.8759573906434445 1.8360570181789697 0.49999999999999956
vt 0.125 0.6953125
vt 0 0.6953125
vt 0 0.5859375
vt 0.125 0.5859375
vt 0.390625 0.8125
vt 0.390625 0.921875
vt 0.265625 0.921875
vt 0.265625 0.8125
vt 0.1328125 1
vt 0.1328125 0.703125
vt 0.2578125 0.703125
vt 0.2578125 1
vt 0 0.703125
vt 0.125 0.703125
vt 0.125 1
vt 0 1
vt 0.3454865194821737 0.9939240194821737
vt 0.27500888320445227 0.9314240194821738
vt 0.5685759805178262 0.9314240194821739
vt 0.6468661167955477 0.9939240194821738
vt 0.2421875 0.3689240194821738
vt 0.2421875 0.6660240821756895
vt 0.3125 0.7560759805178262
vt 0.3125 0.45116341782431046
vn -0.954432166841576 0.29842794590670335 6.213851615639308e-17
vn 0.954432166841576 -0.2984279459067036 -6.213851615639304e-17
vn -0.5343357725925519 0.845272312410575 -8.962541694825079e-17
vn 0.5343357725925523 -0.845272312410575 8.962541694825073e-17
vn -1.224646799147354e-16 -1.8344700758454715e-16 -1
vn 1.224646799147354e-16 1.8344700758454715e-16 1
usemtl m_b09412c5-5499-26ce-b7aa-7b1f8aafb361
f 234/929/264 233/930/264 235/931/264 236/932/264
f 239/933/265 237/934/265 238/935/265 240/936/265
f 237/937/266 233/938/266 234/939/266 238/940/266
f 236/941/267 235/942/267 239/943/267 240/944/267
f 235/945/268 233/946/268 237/947/268 239/948/268
f 238/949/269 234/950/269 236/951/269 240/952/269